
<svg xmlns="http://www.w3.org/2000/svg" viewBox="0 0 1000 1200" fill="none">
  <!-- Map Pin Center Top -->
  <g transform="translate(70.72, 90.58) scale(0.8)">
    
  <defs>
    <!-- Mask to create the "arrow" gap at the top right -->
    <mask id="gap-cut">
      <rect width="1000" height="1000" fill="white" />
      <rect x="550" y="0" width="90" height="500" fill="black" />
    </mask>
  </defs>

  <g fill="#FF5C38">
    <path mask="url(#gap-cut)" fill-rule="evenodd" d="
      M 323.22 676.78
      L 500 853.55
      L 676.78 676.78
      A 250 250 0 1 0 323.22 676.78
      Z
      
      M 500 360
      A 140 140 0 0 1 500 640
      A 140 140 0 0 1 500 360
      Z
    "/>
    
    <!-- Vertical Ascender Stem: EXTENDED from y=150 to y=50 so it's incredibly prominent -->
    <rect x="640" y="50" width="110" height="450"/>
    
    <circle cx="500" cy="500" r="55"/>
  </g>

  </g>
  <!-- Wordmark Center Bottom -->
  <g transform="translate(179, 632.42)" fill="#111318">
    
  <defs>
    <!-- Geometric mask for e mouth slice -->
    <mask id="e-cut">
      <rect width="1000" height="1000" fill="white"/>
      <rect x="229.5" y="331" width="100" height="8" fill="black"/> 
    </mask>
    <!-- Geometric mask for m arches -->
    <mask id="m-cut">
      <rect width="1000" height="1000" fill="white"/>
      <rect x="350" y="321" width="250" height="100" fill="black"/> 
    </mask>
  </defs>

  <!-- d (Geometric O on a stick) -->
  <path fill-rule="evenodd" d="M 124.5,275 A 44.5,44.5 0 1,0 124.5,364 A 44.5,44.5 0 1,0 124.5,275 Z M 124.5,298 A 21.5,21.5 0 1,1 124.5,341 A 21.5,21.5 0 1,1 124.5,298 Z"/>
  <polygon points="146,224 169,201 169,319.5 146,319.5"/>

  <!-- e -->
  <g mask="url(#e-cut)">
    <path fill-rule="evenodd" d="M 229.5,275 A 44.5,44.5 0 1,0 229.5,364 A 44.5,44.5 0 1,0 229.5,275 Z M 229.5,298 A 21.5,21.5 0 1,1 229.5,341 A 21.5,21.5 0 1,1 229.5,298 Z"/>
    <rect x="208" y="308" width="43" height="23"/>
  </g>

  <!-- p (Geometric O on a stick) -->
  <path fill-rule="evenodd" d="M 333.5,275 A 44.5,44.5 0 1,0 333.5,364 A 44.5,44.5 0 1,0 333.5,275 Z M 333.5,298 A 21.5,21.5 0 1,1 333.5,341 A 21.5,21.5 0 1,1 333.5,298 Z"/>
  <polygon points="289,319.5 312,319.5 312,414 289,437"/>

  <!-- m -->
  <g mask="url(#m-cut)">
    <path fill-rule="evenodd" d="M 431.25,275 A 38.25,44.5 0 1,0 431.25,364 A 38.25,44.5 0 1,0 431.25,275 Z M 431.25,298 A 15.25,21.5 0 1,1 431.25,341 A 15.25,21.5 0 1,1 431.25,298 Z"/>
    <path fill-rule="evenodd" d="M 484.75,275 A 38.25,44.5 0 1,0 484.75,364 A 38.25,44.5 0 1,0 484.75,275 Z M 484.75,298 A 15.25,21.5 0 1,1 484.75,341 A 15.25,21.5 0 1,1 484.75,298 Z"/>
  </g>
  <rect x="393" y="319.5" width="23" height="44.5"/>
  <rect x="446.5" y="319.5" width="23" height="44.5"/>
  <rect x="500" y="319.5" width="23" height="44.5"/>

  <!-- i -->
  <rect x="537" y="285" width="23" height="79"/>
  <circle cx="548.5" cy="253.5" r="13.5"/>

  </g>
</svg>
