<svg xmlns="http://www.w3.org/2000/svg" width="640" height="640" viewBox="0 0 640 640" version="1.1">
	<path d="M 0 320.002 L 0 640.003 320.250 639.752 L 640.500 639.500 640.752 319.750 L 641.003 0 320.502 0 L 0 0 0 320.002 M 0.494 320.500 C 0.494 496.500, 0.609 568.351, 0.750 480.169 C 0.891 391.987, 0.891 247.987, 0.750 160.169 C 0.609 72.351, 0.494 144.500, 0.494 320.500 M 162.750 215.650 L 153 231.801 153 259.019 L 153 286.237 149.485 283.557 C 133.418 271.301, 109.586 272.624, 94.091 286.630 C 79.683 299.655, 75.783 322.375, 84.785 340.838 C 100.610 373.290, 150.926 372.858, 167.299 340.129 C 172.843 329.048, 173.172 324.147, 172.815 258 L 172.500 199.500 162.750 215.650 M 543.388 242.927 C 537.696 245.371, 535.245 253.705, 538.415 259.835 C 540.777 264.404, 547.185 266.754, 552.499 265 C 560.771 262.270, 563.039 251.143, 556.564 245.060 C 553.877 242.536, 546.922 241.409, 543.388 242.927 M 218.500 276.389 C 190.596 283.191, 176.840 314.783, 190.203 341.375 C 201.006 362.874, 229.611 371.326, 253.591 360.104 C 259.910 357.147, 269.264 348.567, 268.772 346.178 C 268.622 345.452, 265.517 343.220, 261.871 341.219 L 255.241 337.581 251.473 340.889 C 245.082 346.501, 239.768 348.212, 229.919 347.832 C 222.434 347.542, 220.713 347.114, 216.450 344.476 C 211.288 341.284, 206.520 335.342, 205.434 330.750 L 204.783 328 239.523 328 L 274.262 328 273.801 317.623 C 273.384 308.265, 272.982 306.495, 269.704 299.592 C 263.719 286.989, 253.700 279.023, 240.201 276.134 C 233.543 274.709, 224.978 274.810, 218.500 276.389 M 321.773 276.555 C 309.272 279.585, 299.404 286.877, 293.489 297.454 C 286.922 309.196, 286.956 308.751, 287.242 377.967 L 287.500 440.325 296.750 424.548 L 306 408.771 306 381.385 C 306 366.323, 306.380 354, 306.845 354 C 307.310 354, 308.547 354.948, 309.595 356.106 C 313.843 360.804, 325.613 364.967, 334.701 364.988 C 359.846 365.046, 379.021 346.151, 379.248 321.092 C 379.412 302.906, 370.679 287.874, 355.672 280.515 C 344.388 274.981, 333.508 273.710, 321.773 276.555 M 427.224 276.469 C 422.347 277.992, 418.708 280.135, 414.750 283.817 L 412 286.374 412 281.687 L 412 277 402.500 277 L 393 277 393 320 L 393 363 402.443 363 L 411.886 363 412.193 334.750 C 412.488 307.600, 412.588 306.335, 414.770 302.251 C 420.464 291.592, 435.274 289.074, 443.557 297.357 C 448.281 302.081, 449 307.325, 449 337.049 L 449 363 458.500 363 L 468 363 468 335.196 C 468 307.553, 468.014 307.364, 470.497 302.382 C 473.770 295.814, 479.225 292.563, 487.004 292.546 C 494.520 292.529, 499.066 295.400, 501.880 301.943 C 503.873 306.575, 504 308.558, 504 334.935 L 504 363 513.552 363 L 523.104 363 522.802 331.250 L 522.500 299.500 519.693 293.500 C 518.150 290.200, 515.675 286.222, 514.193 284.661 C 502.343 272.169, 478.335 272.027, 465.784 284.374 L 462.069 288.030 457.908 283.516 C 451.152 276.187, 437.885 273.140, 427.224 276.469 M 539 320 L 539 363 548.500 363 L 558 363 558 320 L 558 277 548.500 277 L 539 277 539 320 M 218.500 294.383 C 215.750 295.683, 212.286 298.041, 210.803 299.624 C 208.257 302.339, 205 308.706, 205 310.968 C 205 311.650, 213.481 312, 230 312 C 246.180 312, 255 311.643, 255 310.989 C 255 308.270, 250.327 300.580, 246.885 297.633 C 239.688 291.473, 227.587 290.088, 218.500 294.383 M 113.933 295.473 C 100.782 302.325, 95.145 319.564, 101.795 332.598 C 104.231 337.373, 110.862 343.626, 115.578 345.597 C 120.121 347.495, 131.800 347.392, 136.628 345.411 C 141.472 343.423, 147.504 337.736, 150.323 332.500 C 153.234 327.092, 153.408 313.250, 150.631 308 C 147.850 302.742, 142.035 297.121, 137.123 294.942 C 130.695 292.090, 119.953 292.336, 113.933 295.473 M 321.220 295.578 C 315.620 298.368, 312.138 301.937, 308.725 308.384 C 307.046 311.556, 306.546 314.221, 306.546 320 C 306.546 328.088, 308.208 332.529, 313.661 339.009 C 320.409 347.028, 335.461 349.564, 345.782 344.421 C 351.434 341.605, 356.547 335.922, 358.600 330.175 C 359.322 328.154, 359.932 323.534, 359.956 319.910 C 360.032 308.522, 353.768 298.726, 343.728 294.531 C 337.753 292.034, 327.361 292.518, 321.220 295.578" stroke="none" fill="black" fill-rule="evenodd"/>
</svg>